<svg xmlns="http://www.w3.org/2000/svg" xmlns:xlink="http://www.w3.org/1999/xlink" width="1000" zoomAndPan="magnify" viewBox="0 0 750 749.999995" height="1000" preserveAspectRatio="xMidYMid meet" version="1.0"><defs><g/><clipPath id="00f082f5ab"><path d="M 324 302.195312 L 357 302.195312 L 357 338 L 324 338 Z M 324 302.195312 " clip-rule="nonzero"/></clipPath><clipPath id="45e6e5172c"><path d="M 240.378906 347 L 381 347 L 381 447 L 240.378906 447 Z M 240.378906 347 " clip-rule="nonzero"/></clipPath></defs><g clip-path="url(#00f082f5ab)"><path fill="#d7604b" d="M 338.269531 307.910156 C 338.480469 307.488281 338.691406 307.09375 338.957031 306.699219 C 339.007812 306.648438 339.035156 306.570312 339.085938 306.515625 C 340.21875 304.914062 341.773438 303.808594 343.984375 303.097656 L 344.0625 303.074219 C 346.617188 302.285156 349.246094 302.601562 351.433594 303.730469 C 353.644531 304.886719 355.433594 306.859375 356.25 309.433594 L 356.277344 309.511719 C 357.511719 313.457031 356.855469 317.820312 355.25 322.394531 C 353.75 326.652344 351.484375 331.070312 349.195312 335.484375 C 348.457031 336.902344 346.746094 337.457031 345.324219 336.71875 C 340.902344 334.433594 336.480469 332.144531 332.796875 329.542969 C 328.820312 326.703125 325.742188 323.5 324.476562 319.527344 L 324.453125 319.449219 C 323.664062 316.898438 323.976562 314.269531 325.109375 312.089844 C 326.269531 309.882812 328.242188 308.09375 330.820312 307.277344 L 330.847656 307.277344 C 333.136719 306.542969 335.113281 306.597656 337.007812 307.332031 C 337.113281 307.359375 337.191406 307.410156 337.296875 307.464844 C 337.640625 307.59375 337.957031 307.753906 338.269531 307.910156 Z M 343.746094 309.90625 C 343.246094 310.644531 342.929688 311.746094 342.71875 313.167969 C 342.640625 313.796875 342.378906 314.429688 341.878906 314.902344 C 340.746094 316.007812 338.929688 315.980469 337.824219 314.851562 C 336.824219 313.824219 335.953125 313.089844 335.164062 312.746094 L 335.007812 312.695312 C 334.375 312.457031 333.691406 312.429688 332.824219 312.695312 C 332.691406 312.746094 332.558594 312.800781 332.402344 312.824219 C 331.453125 313.195312 330.691406 313.878906 330.242188 314.746094 C 329.796875 315.613281 329.664062 316.609375 329.925781 317.609375 C 329.980469 317.742188 330.03125 317.898438 330.058594 318.03125 C 330.925781 320.527344 333.191406 322.761719 336.164062 324.863281 C 338.824219 326.757812 342.089844 328.546875 345.429688 330.304688 C 347.167969 326.914062 348.773438 323.601562 349.851562 320.527344 C 351.039062 317.109375 351.589844 313.957031 350.878906 311.40625 C 350.828125 311.273438 350.773438 311.144531 350.746094 310.984375 C 350.378906 310.039062 349.695312 309.277344 348.828125 308.832031 C 347.957031 308.382812 346.957031 308.25 345.957031 308.515625 C 345.824219 308.566406 345.695312 308.621094 345.535156 308.644531 C 344.746094 308.933594 344.21875 309.304688 343.851562 309.800781 Z M 344.0625 303.097656 C 344.324219 303.019531 344.589844 302.996094 344.851562 302.996094 Z M 324.476562 319.476562 C 324.398438 319.214844 324.375 318.949219 324.375 318.6875 Z M 324.476562 319.476562 " fill-opacity="1" fill-rule="nonzero"/></g><path fill="#466aa2" d="M 370.253906 372.996094 C 372.675781 364.03125 372.992188 363.875 373.699219 362.0625 C 372.78125 359.695312 371.28125 354.488281 369.464844 343.371094 C 366.460938 324.96875 368.648438 320.894531 368.648438 320.894531 C 369.304688 319.476562 371.015625 318.84375 372.464844 319.503906 C 372.621094 319.582031 372.753906 319.660156 372.886719 319.738281 L 399.574219 338.140625 C 402.523438 337.824219 411.078125 336.878906 420.054688 335.957031 C 419.132812 320.105469 431.347656 307.960938 432.582031 306.753906 C 432.820312 306.492188 433.109375 306.28125 433.453125 306.148438 C 434.898438 305.492188 436.609375 306.148438 437.242188 307.59375 L 449.746094 335.351562 C 453.0625 336.5625 456.328125 338.535156 459.484375 341.164062 C 465.644531 346.261719 471.460938 353.859375 476.671875 362.71875 C 478.675781 366.136719 481.542969 370.234375 484.597656 374.625 C 495.808594 390.714844 509.628906 410.585938 501.46875 426.121094 C 499.335938 430.167969 495.441406 434.21875 490.464844 437.871094 C 486.570312 440.738281 481.9375 443.417969 476.988281 445.730469 C 476.9375 445.757812 476.882812 445.785156 476.804688 445.808594 C 471.515625 448.253906 465.828125 450.253906 460.167969 451.59375 C 448.878906 454.273438 437.585938 454.351562 429.453125 450.070312 C 427.636719 449.121094 425.976562 447.9375 424.503906 446.546875 C 421.921875 444.785156 416.632812 442.367188 410.894531 442 C 407.15625 441.761719 403.289062 442.394531 400.050781 444.785156 C 395.652344 448.019531 390.019531 450.015625 385.414062 450.148438 C 383.097656 450.199219 380.992188 449.804688 379.28125 448.859375 C 377.308594 447.78125 375.910156 446.097656 375.332031 443.679688 C 374.753906 441.261719 375.148438 438.160156 376.832031 434.296875 C 379.808594 427.515625 384.914062 423.152344 390.441406 420.496094 C 395.652344 418 401.3125 417.027344 405.894531 417.027344 C 402.496094 410.324219 399.996094 404.644531 398.601562 401.304688 C 396.523438 403.621094 395.234375 405.671875 395.234375 405.695312 C 394.390625 407.035156 392.625 407.429688 391.285156 406.589844 C 389.941406 405.75 389.546875 403.988281 390.390625 402.648438 C 390.414062 402.621094 397.996094 390.582031 407.605469 389.347656 C 409.183594 389.136719 410.605469 390.265625 410.816406 391.816406 C 411.027344 393.394531 409.894531 394.8125 408.339844 395.023438 C 406.523438 395.261719 404.789062 396.101562 403.15625 397.207031 C 404.367188 400.203125 408 408.796875 413.34375 418.867188 C 413.394531 418.972656 413.472656 419.078125 413.5 419.179688 C 415.210938 422.386719 417.132812 425.753906 419.1875 429.144531 L 419.210938 429.195312 L 419.238281 429.222656 C 421.554688 433.035156 424.082031 436.847656 426.765625 440.472656 C 428.1875 442.394531 430.003906 443.890625 432.109375 444.996094 C 438.902344 448.542969 448.796875 448.386719 458.851562 445.992188 C 463.644531 444.863281 468.460938 443.207031 473.015625 441.234375 C 473.226562 438.710938 473.542969 433.507812 473.277344 427.882812 C 470.222656 427.566406 465.589844 426.566406 459.222656 423.835938 C 446.402344 418.289062 444.164062 410.429688 448.585938 408.351562 C 453.007812 406.25 459.75 402.59375 475.121094 400.28125 C 490.492188 397.96875 486.519531 407.167969 485.386719 412.320312 C 484.359375 417 482.621094 425.253906 478.988281 427.355469 C 479.199219 431.484375 479.121094 435.425781 478.964844 438.34375 C 481.910156 436.765625 484.648438 435.03125 487.097656 433.246094 C 491.414062 430.0625 494.703125 426.699219 496.414062 423.464844 C 502.96875 411.007812 490.230469 392.738281 479.886719 377.910156 C 476.832031 373.523438 473.960938 369.421875 471.726562 365.609375 C 466.828125 357.277344 461.433594 350.207031 455.828125 345.550781 C 452.878906 343.109375 449.878906 341.347656 446.902344 340.425781 L 446.851562 340.398438 C 445.085938 339.875 443.324219 339.664062 441.585938 339.769531 C 429.976562 340.503906 399.261719 343.949219 399.15625 343.949219 C 398.496094 344.027344 397.785156 343.871094 397.207031 343.449219 L 373.492188 327.097656 C 373.515625 329.886719 373.859375 334.566406 375.148438 342.425781 C 377.859375 359.117188 378.964844 360.167969 378.964844 360.167969 C 379.703125 361.007812 379.914062 362.269531 379.359375 363.324219 C 379.359375 363.324219 379.332031 361.378906 376.042969 373.546875 C 373.570312 379.148438 369.464844 375.964844 370.253906 372.996094 Z M 454.90625 357.882812 C 457.933594 357.882812 460.378906 362.035156 460.378906 367.160156 C 460.378906 372.285156 457.933594 376.4375 454.90625 376.4375 C 451.878906 376.4375 449.429688 372.285156 449.429688 367.160156 C 449.457031 362.035156 451.90625 357.882812 454.90625 357.882812 Z M 429.109375 363.191406 C 432.136719 363.191406 434.585938 367.34375 434.585938 372.46875 C 434.585938 377.597656 432.136719 381.75 429.109375 381.75 C 426.082031 381.75 423.632812 377.597656 423.632812 372.46875 C 423.632812 367.34375 426.082031 363.191406 429.109375 363.191406 Z M 414.605469 432.613281 C 413.34375 431.773438 408.050781 429.066406 396.96875 433.875 C 395.523438 434.507812 393.835938 433.824219 393.207031 432.378906 C 392.574219 430.933594 393.257812 429.25 394.707031 428.617188 C 401.390625 425.726562 406.628906 425.203125 410.5 425.570312 C 410 424.675781 409.527344 423.808594 409.050781 422.941406 C 405.078125 422.363281 398.757812 422.886719 392.96875 425.648438 C 388.546875 427.777344 384.492188 431.222656 382.125 436.582031 C 380.964844 439.210938 380.648438 441.105469 380.964844 442.367188 C 381.125 443.023438 381.519531 443.496094 382.070312 443.8125 C 382.859375 444.257812 383.992188 444.441406 385.308594 444.417969 C 388.808594 444.339844 393.179688 442.734375 396.679688 440.160156 C 401.179688 436.871094 406.367188 435.953125 411.316406 436.269531 C 413.5 436.398438 415.632812 436.792969 417.632812 437.34375 C 416.578125 435.769531 415.578125 434.191406 414.605469 432.613281 Z M 414.605469 432.613281 " fill-opacity="1" fill-rule="nonzero"/><g clip-path="url(#45e6e5172c)"><path fill="#466aa2" d="M 286.074219 419.472656 C 285.941406 417.894531 287.128906 416.5 288.707031 416.394531 C 290.285156 416.265625 291.679688 417.445312 291.785156 419.023438 C 291.785156 419.050781 292.207031 424.910156 294.839844 424.78125 C 298.550781 424.597656 301.816406 417.316406 301.839844 417.316406 C 302.5 415.871094 304.210938 415.238281 305.632812 415.894531 C 306.449219 416.265625 307 416.972656 307.210938 417.761719 C 307.210938 417.789062 309.554688 426.515625 313.84375 425.675781 C 319.242188 424.597656 321.1875 419.523438 321.1875 419.496094 C 321.765625 418.023438 323.425781 417.289062 324.898438 417.867188 C 326.375 418.445312 327.109375 420.101562 326.53125 421.574219 C 326.53125 421.601562 323.453125 429.566406 314.949219 431.273438 C 309.527344 432.351562 306 428.40625 303.945312 424.753906 C 301.867188 427.488281 298.839844 430.328125 295.101562 430.511719 C 286.835938 430.933594 286.074219 419.496094 286.074219 419.472656 Z M 368.332031 435.164062 C 368.59375 436.714844 367.542969 438.214844 365.960938 438.476562 C 364.410156 438.738281 362.910156 437.6875 362.644531 436.109375 C 361.933594 431.929688 361.117188 427.144531 360.25 422.097656 C 356.039062 422.703125 353.167969 423.546875 353.144531 423.546875 C 351.617188 423.992188 350.039062 423.097656 349.589844 421.601562 C 349.140625 420.074219 350.039062 418.5 351.539062 418.050781 C 351.5625 418.050781 354.671875 417.132812 359.25 416.472656 C 358.777344 413.6875 358.277344 410.875 357.777344 408.0625 C 353.144531 409.664062 350.457031 411.347656 350.457031 411.347656 C 349.117188 412.164062 347.324219 411.742188 346.511719 410.402344 C 345.695312 409.0625 346.117188 407.273438 347.457031 406.457031 C 347.484375 406.457031 350.90625 404.277344 356.75 402.382812 C 356.484375 400.914062 356.222656 399.464844 355.960938 398.074219 C 355.644531 396.339844 355.328125 394.628906 355.011719 392.972656 C 352.300781 393.972656 349.800781 394.996094 347.722656 395.917969 C 347.035156 396.207031 346.589844 396.417969 346.351562 396.523438 L 346.21875 396.574219 C 345.71875 396.8125 345.246094 397.023438 344.878906 397.207031 C 343.457031 397.890625 341.71875 397.257812 341.0625 395.839844 C 340.378906 394.417969 341.007812 392.710938 342.429688 392.027344 C 342.902344 391.816406 343.378906 391.582031 343.824219 391.371094 C 343.878906 391.34375 343.929688 391.316406 343.984375 391.316406 C 344.695312 391.003906 345.195312 390.765625 345.429688 390.660156 C 347.851562 389.582031 350.773438 388.398438 353.960938 387.242188 C 353.0625 382.667969 352.25 378.671875 351.589844 375.703125 C 349.035156 364.453125 345.957031 358.25 344.0625 355.253906 L 327.742188 372.15625 C 327.003906 372.917969 325.925781 373.179688 324.980469 372.941406 C 324.953125 372.941406 313.476562 370 306.554688 370.339844 C 299.710938 370.65625 293.734375 373.046875 293.734375 373.046875 C 292.523438 373.546875 291.15625 373.128906 290.390625 372.15625 C 289.601562 371.261719 283.46875 364.53125 276.546875 362.480469 C 271.859375 361.089844 266.675781 360.429688 263.226562 360.117188 L 269.28125 381.984375 C 269.464844 382.617188 269.414062 383.246094 269.175781 383.800781 C 268.914062 384.589844 267.621094 388.582031 265.886719 394.789062 C 272.730469 396.207031 276.414062 398.597656 276.414062 398.625 C 277.757812 399.464844 278.175781 401.226562 277.335938 402.570312 C 276.492188 403.910156 274.730469 404.328125 273.386719 403.488281 C 273.359375 403.488281 270.308594 401.464844 264.386719 400.308594 C 264.199219 401.042969 263.988281 401.804688 263.804688 402.59375 C 263.015625 405.722656 262.382812 408.613281 261.882812 411.136719 C 266.675781 410.535156 270.28125 410.269531 270.308594 410.269531 C 271.886719 410.164062 273.28125 411.347656 273.386719 412.925781 C 273.492188 414.503906 272.308594 415.894531 270.726562 416 C 270.703125 416 266.253906 416.34375 260.859375 417.050781 C 260.648438 418.5 260.488281 419.65625 260.410156 420.441406 C 261.410156 421.441406 263.148438 423.125 265.410156 425.148438 C 270.042969 423.308594 272.941406 422.96875 272.964844 422.96875 C 274.546875 422.78125 275.964844 423.914062 276.152344 425.492188 C 276.335938 427.066406 275.203125 428.488281 273.625 428.671875 C 273.625 428.671875 272.4375 428.800781 270.414062 429.433594 C 275.675781 433.691406 282.203125 438.238281 288.441406 440.632812 C 289.917969 441.210938 290.679688 442.867188 290.101562 444.339844 C 289.550781 445.808594 287.863281 446.574219 286.390625 445.992188 C 278.519531 442.996094 270.332031 436.925781 264.359375 431.851562 C 261.148438 433.402344 257.277344 435.714844 253.011719 439.132812 C 251.777344 440.132812 249.960938 439.921875 248.984375 438.6875 C 247.984375 437.449219 248.195312 435.636719 249.433594 434.664062 C 253.144531 431.695312 256.671875 429.460938 259.777344 427.777344 C 257.460938 425.621094 255.910156 424.070312 255.488281 423.625 C 254.855469 423.046875 254.488281 422.179688 254.566406 421.257812 C 254.566406 421.257812 254.671875 420.074219 254.960938 417.972656 C 251.09375 418.65625 247.328125 419.523438 244.722656 420.574219 C 243.25 421.179688 241.589844 420.46875 240.984375 419.023438 C 240.378906 417.550781 241.089844 415.894531 242.539062 415.292969 C 245.960938 413.871094 251.011719 412.792969 255.910156 412.003906 C 256.460938 408.957031 257.226562 405.277344 258.277344 401.203125 L 258.699219 399.597656 C 255.171875 399.363281 251.011719 399.519531 246.25 400.308594 C 244.695312 400.570312 243.195312 399.519531 242.933594 397.941406 C 242.667969 396.390625 243.722656 394.894531 245.300781 394.628906 C 250.988281 393.683594 255.988281 393.605469 260.199219 393.972656 C 261.753906 388.425781 263.015625 384.378906 263.542969 382.722656 L 256.644531 357.777344 C 256.566406 357.511719 256.539062 357.222656 256.539062 356.933594 C 256.566406 355.359375 257.882812 354.097656 259.460938 354.148438 C 259.488281 354.148438 269.621094 354.464844 278.203125 356.988281 C 284.941406 358.984375 290.917969 364.453125 293.496094 367.082031 C 296.078125 366.238281 300.972656 364.898438 306.316406 364.636719 C 312.398438 364.347656 321.1875 366.1875 324.792969 367.003906 L 342.191406 348.96875 C 342.246094 348.917969 342.296875 348.839844 342.351562 348.785156 C 343.484375 347.65625 345.300781 347.65625 346.429688 348.785156 C 346.457031 348.8125 352.855469 355.199219 357.222656 374.441406 C 357.882812 377.308594 358.644531 381.09375 359.488281 385.457031 L 359.988281 385.296875 C 365.59375 383.695312 371.675781 382.5625 377.332031 382.75 C 378.914062 382.800781 380.175781 384.113281 380.125 385.691406 C 380.070312 387.269531 378.753906 388.53125 377.175781 388.480469 C 372.199219 388.347656 366.726562 389.371094 361.566406 390.84375 C 361.222656 390.949219 360.910156 391.027344 360.566406 391.132812 C 360.933594 393.027344 361.277344 394.996094 361.644531 397.023438 L 362.355469 400.859375 C 366.59375 399.941406 371.570312 399.335938 377.097656 399.570312 C 378.675781 399.625 379.914062 400.964844 379.859375 402.542969 C 379.808594 404.121094 378.464844 405.355469 376.886719 405.300781 C 371.78125 405.09375 367.226562 405.644531 363.382812 406.511719 C 363.933594 409.664062 364.488281 412.792969 365.039062 415.894531 C 367.832031 415.738281 370.859375 415.738281 373.886719 416.078125 C 375.464844 416.265625 376.597656 417.683594 376.4375 419.234375 C 376.253906 420.8125 374.832031 421.941406 373.28125 421.757812 C 370.804688 421.46875 368.359375 421.441406 366.042969 421.546875 C 366.855469 426.488281 367.648438 431.117188 368.332031 435.164062 Z M 368.332031 435.164062 " fill-opacity="1" fill-rule="nonzero"/></g><path fill="#466aa2" d="M 292.496094 390.003906 C 295.261719 390.003906 297.523438 393.867188 297.523438 398.625 C 297.523438 403.382812 295.285156 407.246094 292.496094 407.246094 C 289.734375 407.246094 287.46875 403.382812 287.46875 398.625 C 287.496094 393.839844 289.734375 390.003906 292.496094 390.003906 Z M 292.496094 390.003906 " fill-opacity="1" fill-rule="evenodd"/><path fill="#466aa2" d="M 321.976562 389.742188 C 324.742188 389.742188 327.003906 393.605469 327.003906 398.363281 C 327.003906 403.121094 324.769531 406.984375 321.976562 406.984375 C 319.214844 406.984375 316.949219 403.121094 316.949219 398.363281 C 316.949219 393.605469 319.214844 389.742188 321.976562 389.742188 Z M 321.976562 389.742188 " fill-opacity="1" fill-rule="evenodd"/><g fill="#466aa2" fill-opacity="1"><g transform="translate(230.989764, 333.258085)"><g><path d="M -13.703125 -28.390625 L 15.03125 -22.21875 L 11.296875 -16.703125 L 5.640625 -18.09375 L -0.171875 -9.5 L 3.21875 -4.765625 L -0.515625 0.765625 L -16.9375 -23.625 Z M -0.046875 -19.390625 L -8.328125 -21.3125 L -8.375 -21.265625 L -3.5 -14.28125 Z M -0.046875 -19.390625 "/></g></g></g><g fill="#466aa2" fill-opacity="1"><g transform="translate(246.252756, 310.941296)"><g><path d="M 7.203125 -15.875 C 7.847656 -16.5625 8.375 -17.328125 8.78125 -18.171875 C 9.1875 -19.015625 9.429688 -19.675781 9.515625 -20.15625 L 9.65625 -20.921875 L 15.296875 -19.21875 C 15.285156 -19.113281 15.265625 -18.96875 15.234375 -18.78125 C 15.210938 -18.59375 15.117188 -18.1875 14.953125 -17.5625 C 14.785156 -16.945312 14.566406 -16.332031 14.296875 -15.71875 C 14.023438 -15.101562 13.59375 -14.359375 13 -13.484375 C 12.414062 -12.609375 11.75 -11.769531 11 -10.96875 C 9.257812 -9.125 7.160156 -7.800781 4.703125 -7 C 2.242188 -6.207031 -0.25 -6.050781 -2.78125 -6.53125 C -5.320312 -7.019531 -7.515625 -8.128906 -9.359375 -9.859375 C -10.753906 -11.171875 -11.816406 -12.722656 -12.546875 -14.515625 C -13.285156 -16.316406 -13.648438 -18.140625 -13.640625 -19.984375 C -13.628906 -21.835938 -13.273438 -23.679688 -12.578125 -25.515625 C -11.890625 -27.347656 -10.894531 -28.953125 -9.59375 -30.328125 C -8.382812 -31.609375 -7.117188 -32.648438 -5.796875 -33.453125 C -4.472656 -34.253906 -3.445312 -34.734375 -2.71875 -34.890625 L -1.625 -35.140625 L 0.4375 -29.59375 C 0.21875 -29.570312 -0.0625 -29.507812 -0.40625 -29.40625 C -0.75 -29.3125 -1.347656 -29.03125 -2.203125 -28.5625 C -3.066406 -28.101562 -3.820312 -27.53125 -4.46875 -26.84375 C -5.488281 -25.75 -6.226562 -24.601562 -6.6875 -23.40625 C -7.15625 -22.207031 -7.335938 -21.082031 -7.234375 -20.03125 C -7.140625 -18.988281 -6.878906 -18.019531 -6.453125 -17.125 C -6.035156 -16.226562 -5.484375 -15.457031 -4.796875 -14.8125 C -3.296875 -13.394531 -1.414062 -12.691406 0.84375 -12.703125 C 3.101562 -12.710938 5.222656 -13.769531 7.203125 -15.875 Z M 7.203125 -15.875 "/></g></g></g><g fill="#466aa2" fill-opacity="1"><g transform="translate(264.109949, 292.005574)"><g><path d="M -4.109375 -31.25 L 21.25 -16.375 L 15.96875 -12.296875 L 11.046875 -15.390625 L 2.828125 -9.046875 L 4.5625 -3.515625 L -0.734375 0.5625 L -8.65625 -27.75 Z M 6.046875 -18.421875 L -1.21875 -22.84375 L -1.265625 -22.8125 L 1.171875 -14.671875 Z M 6.046875 -18.421875 "/></g></g></g><g fill="#466aa2" fill-opacity="1"><g transform="translate(285.654997, 275.636153)"><g><path d="M -11.34375 -24.875 L -2.78125 -29.546875 C -0.476562 -30.804688 1.726562 -31.21875 3.84375 -30.78125 C 5.96875 -30.34375 7.65625 -28.988281 8.90625 -26.71875 C 9.863281 -24.945312 10.226562 -23.222656 10 -21.546875 C 9.769531 -19.878906 9.03125 -18.394531 7.78125 -17.09375 L 21.4375 -11.71875 L 14.5 -7.921875 L 2.046875 -13.390625 L 7.203125 -3.9375 L 1.734375 -0.953125 Z M -0.078125 -17.25 L 0.546875 -17.59375 C 1.046875 -17.863281 1.460938 -18.101562 1.796875 -18.3125 C 2.140625 -18.53125 2.5 -18.8125 2.875 -19.15625 C 3.257812 -19.507812 3.53125 -19.867188 3.6875 -20.234375 C 3.851562 -20.609375 3.921875 -21.050781 3.890625 -21.5625 C 3.859375 -22.070312 3.679688 -22.613281 3.359375 -23.1875 C 3.046875 -23.769531 2.679688 -24.207031 2.265625 -24.5 C 1.859375 -24.800781 1.457031 -24.984375 1.0625 -25.046875 C 0.675781 -25.117188 0.234375 -25.09375 -0.265625 -24.96875 C -0.773438 -24.84375 -1.210938 -24.691406 -1.578125 -24.515625 C -1.941406 -24.347656 -2.375 -24.128906 -2.875 -23.859375 L -3.5 -23.515625 Z M -0.078125 -17.25 "/></g></g></g><g fill="#466aa2" fill-opacity="1"><g transform="translate(307.88537, 263.998956)"><g><path d="M -2.765625 -28.328125 L 7.59375 -3.109375 L 1.828125 -0.75 L -8.53125 -25.96875 Z M -2.765625 -28.328125 "/></g></g></g><g fill="#466aa2" fill-opacity="1"><g transform="translate(318.51363, 259.272332)"><g><path d="M 14.328125 -9.890625 C 15.242188 -10.140625 16.09375 -10.523438 16.875 -11.046875 C 17.65625 -11.566406 18.210938 -12.007812 18.546875 -12.375 L 19.03125 -12.953125 L 23.015625 -8.59375 C 22.953125 -8.507812 22.859375 -8.390625 22.734375 -8.234375 C 22.609375 -8.085938 22.316406 -7.789062 21.859375 -7.34375 C 21.410156 -6.90625 20.90625 -6.492188 20.34375 -6.109375 C 19.789062 -5.734375 19.039062 -5.316406 18.09375 -4.859375 C 17.15625 -4.410156 16.15625 -4.035156 15.09375 -3.734375 C 12.65625 -3.046875 10.171875 -2.992188 7.640625 -3.578125 C 5.117188 -4.160156 2.894531 -5.3125 0.96875 -7.03125 C -0.957031 -8.75 -2.265625 -10.828125 -2.953125 -13.265625 C -3.472656 -15.109375 -3.582031 -16.992188 -3.28125 -18.921875 C -2.976562 -20.847656 -2.34375 -22.597656 -1.375 -24.171875 C -0.414062 -25.742188 0.828125 -27.132812 2.359375 -28.34375 C 3.890625 -29.5625 5.570312 -30.425781 7.40625 -30.9375 C 9.09375 -31.414062 10.707031 -31.65625 12.25 -31.65625 C 13.800781 -31.65625 14.929688 -31.539062 15.640625 -31.3125 L 16.703125 -30.953125 L 15.59375 -25.140625 C 15.414062 -25.222656 15.148438 -25.3125 14.796875 -25.40625 C 14.453125 -25.507812 13.789062 -25.582031 12.8125 -25.625 C 11.84375 -25.664062 10.898438 -25.5625 9.984375 -25.3125 C 8.554688 -24.90625 7.332031 -24.304688 6.3125 -23.515625 C 5.289062 -22.722656 4.550781 -21.847656 4.09375 -20.890625 C 3.644531 -19.941406 3.367188 -18.976562 3.265625 -18 C 3.171875 -17.019531 3.253906 -16.070312 3.515625 -15.15625 C 4.078125 -13.175781 5.328125 -11.601562 7.265625 -10.4375 C 9.203125 -9.28125 11.554688 -9.097656 14.328125 -9.890625 Z M 14.328125 -9.890625 "/></g></g></g><g fill="#466aa2" fill-opacity="1"><g transform="translate(343.944175, 252.610598)"><g><path d="M 3.734375 -28.21875 L 8.09375 -1.3125 L 1.953125 -0.3125 L -2.40625 -27.21875 Z M 3.734375 -28.21875 "/></g></g></g><g fill="#466aa2" fill-opacity="1"><g transform="translate(355.277295, 250.257741)"><g><path d="M 0.296875 -13.65625 C 0.160156 -17.601562 1.382812 -20.988281 3.96875 -23.8125 C 6.5625 -26.644531 9.742188 -28.125 13.515625 -28.25 C 17.328125 -28.382812 20.613281 -27.132812 23.375 -24.5 C 26.132812 -21.875 27.585938 -18.578125 27.734375 -14.609375 C 27.867188 -10.640625 26.671875 -7.242188 24.140625 -4.421875 C 21.617188 -1.609375 18.40625 -0.132812 14.5 0 C 10.53125 0.132812 7.203125 -1.097656 4.515625 -3.703125 C 1.835938 -6.316406 0.429688 -9.632812 0.296875 -13.65625 Z M 7 -13.890625 C 7.039062 -12.472656 7.300781 -11.179688 7.78125 -10.015625 C 8.269531 -8.859375 9.078125 -7.890625 10.203125 -7.109375 C 11.335938 -6.328125 12.703125 -5.960938 14.296875 -6.015625 C 16.617188 -6.097656 18.335938 -6.953125 19.453125 -8.578125 C 20.578125 -10.210938 21.101562 -12.144531 21.03125 -14.375 C 20.945312 -16.601562 20.273438 -18.492188 19.015625 -20.046875 C 17.765625 -21.609375 16.003906 -22.347656 13.734375 -22.265625 C 11.503906 -22.191406 9.800781 -21.332031 8.625 -19.6875 C 7.457031 -18.050781 6.914062 -16.117188 7 -13.890625 Z M 7 -13.890625 "/></g></g></g><g fill="#466aa2" fill-opacity="1"><g transform="translate(385.595217, 249.899449)"><g/></g></g><g fill="#466aa2" fill-opacity="1"><g transform="translate(396.086552, 250.48675)"><g><path d="M 4.375 -26.921875 L 11.703125 -25.46875 L 15.5625 -15.796875 L 22.84375 -23.234375 L 30.171875 -21.765625 L 17.375 -9 L 14.96875 3 L 8.890625 1.78125 L 11.296875 -10.21875 Z M 4.375 -26.921875 "/></g></g></g><g fill="#466aa2" fill-opacity="1"><g transform="translate(421.244914, 256.024305)"><g/></g></g><g fill="#466aa2" fill-opacity="1"><g transform="translate(431.357571, 258.84676)"><g><path d="M 17.34375 1.546875 C 18.207031 1.929688 19.109375 2.175781 20.046875 2.28125 C 20.984375 2.382812 21.691406 2.398438 22.171875 2.328125 L 22.921875 2.1875 L 23.1875 8.09375 C 23.09375 8.113281 22.953125 8.140625 22.765625 8.171875 C 22.578125 8.210938 22.164062 8.253906 21.53125 8.296875 C 20.894531 8.347656 20.238281 8.34375 19.5625 8.28125 C 18.894531 8.226562 18.050781 8.070312 17.03125 7.8125 C 16.007812 7.550781 15 7.195312 14 6.75 C 11.675781 5.726562 9.726562 4.1875 8.15625 2.125 C 6.59375 0.0703125 5.617188 -2.226562 5.234375 -4.78125 C 4.859375 -7.34375 5.179688 -9.78125 6.203125 -12.09375 C 6.984375 -13.84375 8.101562 -15.359375 9.5625 -16.640625 C 11.019531 -17.929688 12.617188 -18.875 14.359375 -19.46875 C 16.109375 -20.070312 17.960938 -20.347656 19.921875 -20.296875 C 21.878906 -20.253906 23.726562 -19.847656 25.46875 -19.078125 C 27.070312 -18.359375 28.46875 -17.503906 29.65625 -16.515625 C 30.84375 -15.523438 31.632812 -14.71875 32.03125 -14.09375 L 32.609375 -13.140625 L 28.0625 -9.375 C 27.96875 -9.5625 27.816406 -9.800781 27.609375 -10.09375 C 27.410156 -10.394531 26.945312 -10.875 26.21875 -11.53125 C 25.5 -12.1875 24.707031 -12.707031 23.84375 -13.09375 C 22.488281 -13.695312 21.164062 -14.019531 19.875 -14.0625 C 18.582031 -14.101562 17.457031 -13.898438 16.5 -13.453125 C 15.550781 -13.015625 14.722656 -12.445312 14.015625 -11.75 C 13.316406 -11.0625 12.773438 -10.285156 12.390625 -9.421875 C 11.554688 -7.535156 11.515625 -5.523438 12.265625 -3.390625 C 13.015625 -1.265625 14.707031 0.378906 17.34375 1.546875 Z M 17.34375 1.546875 "/></g></g></g><g fill="#466aa2" fill-opacity="1"><g transform="translate(455.11935, 269.5087)"><g><path d="M 34.0625 -10.453125 L 24.515625 4.3125 C 22.703125 7.132812 20.570312 8.773438 18.125 9.234375 C 15.675781 9.691406 12.988281 8.976562 10.0625 7.09375 C 7.132812 5.207031 5.378906 3.050781 4.796875 0.625 C 4.210938 -1.789062 4.828125 -4.410156 6.640625 -7.234375 L 16.1875 -22 L 21.390625 -18.640625 L 12.828125 -5.390625 C 11.640625 -3.546875 11.101562 -2.070312 11.21875 -0.96875 C 11.34375 0.132812 12.0625 1.109375 13.375 1.953125 C 14.6875 2.804688 15.867188 3.054688 16.921875 2.703125 C 17.972656 2.359375 19.09375 1.265625 20.28125 -0.578125 L 28.84375 -13.828125 Z M 34.0625 -10.453125 "/></g></g></g><g fill="#466aa2" fill-opacity="1"><g transform="translate(476.687886, 284.020635)"><g><path d="M 23.640625 -15.875 L 6.34375 5.203125 L 1.53125 1.265625 L 18.828125 -19.8125 Z M 23.640625 -15.875 "/></g></g></g><g fill="#466aa2" fill-opacity="1"><g transform="translate(485.884599, 291.157015)"><g><path d="M 20.9375 -17.578125 L 26.4375 -11.921875 C 29.082031 -9.203125 30.410156 -5.972656 30.421875 -2.234375 C 30.429688 1.492188 29.035156 4.722656 26.234375 7.453125 C 23.421875 10.179688 20.15625 11.484375 16.4375 11.359375 C 12.71875 11.242188 9.53125 9.816406 6.875 7.078125 L 1.375 1.421875 Z M 9.703125 2.03125 L 10.359375 2.703125 C 11.941406 4.335938 13.785156 5.132812 15.890625 5.09375 C 17.992188 5.0625 19.882812 4.25 21.5625 2.65625 C 23.21875 1.039062 24.097656 -0.816406 24.203125 -2.921875 C 24.304688 -5.035156 23.554688 -6.914062 21.953125 -8.5625 L 21.296875 -9.234375 Z M 9.703125 2.03125 "/></g></g></g><g fill="#466aa2" fill-opacity="1"><g transform="translate(503.725924, 309.367223)"><g><path d="M 11.671875 -7.125 C 14.921875 -9.363281 18.429688 -10.148438 22.203125 -9.484375 C 25.984375 -8.828125 28.945312 -6.941406 31.09375 -3.828125 C 33.25 -0.691406 33.960938 2.742188 33.234375 6.484375 C 32.503906 10.234375 30.507812 13.234375 27.25 15.484375 C 23.96875 17.742188 20.460938 18.566406 16.734375 17.953125 C 13.015625 17.347656 10.046875 15.4375 7.828125 12.21875 C 5.566406 8.945312 4.8125 5.476562 5.5625 1.8125 C 6.3125 -1.851562 8.347656 -4.832031 11.671875 -7.125 Z M 15.46875 -1.59375 C 14.289062 -0.78125 13.34375 0.140625 12.625 1.171875 C 11.914062 2.210938 11.535156 3.414062 11.484375 4.78125 C 11.429688 6.144531 11.863281 7.488281 12.78125 8.8125 C 14.09375 10.726562 15.738281 11.71875 17.71875 11.78125 C 19.695312 11.851562 21.609375 11.25 23.453125 9.96875 C 25.285156 8.707031 26.515625 7.128906 27.140625 5.234375 C 27.773438 3.335938 27.453125 1.453125 26.171875 -0.421875 C 24.898438 -2.265625 23.253906 -3.234375 21.234375 -3.328125 C 19.222656 -3.429688 17.300781 -2.851562 15.46875 -1.59375 Z M 15.46875 -1.59375 "/></g></g></g><g fill="#d7604b" fill-opacity="1"><g transform="translate(241.618256, 522.689104)"><g><path d="M 13.65625 0 L 17.855469 0 L 17.855469 -18.488281 L 13.65625 -18.488281 L 13.65625 -11.382812 L 6.417969 -11.382812 L 6.417969 -18.488281 L 2.21875 -18.488281 L 2.21875 0 L 6.417969 0 L 6.417969 -7.449219 L 13.65625 -7.449219 Z M 13.65625 0 "/></g></g></g><g fill="#d7604b" fill-opacity="1"><g transform="translate(261.679047, 522.689104)"><g><path d="M 8.824219 0.371094 C 13.417969 0.371094 16.589844 -2.613281 16.589844 -6.945312 C 16.589844 -11.253906 13.417969 -14.238281 8.824219 -14.238281 C 4.199219 -14.238281 1.03125 -11.253906 1.03125 -6.945312 C 1.03125 -2.613281 4.199219 0.371094 8.824219 0.371094 Z M 4.992188 -6.945312 C 4.992188 -9.21875 6.578125 -10.804688 8.824219 -10.804688 C 11.066406 -10.804688 12.625 -9.21875 12.625 -6.945312 C 12.625 -4.675781 11.066406 -3.089844 8.824219 -3.089844 C 6.578125 -3.089844 4.992188 -4.675781 4.992188 -6.945312 Z M 4.992188 -6.945312 "/></g></g></g><g fill="#d7604b" fill-opacity="1"><g transform="translate(279.285034, 522.689104)"><g><path d="M 8.769531 5.863281 C 13.207031 5.863281 16.035156 3.382812 16.035156 -0.765625 L 16.035156 -13.867188 L 13.046875 -13.867188 L 12.625 -12.335938 C 11.410156 -13.550781 9.71875 -14.238281 7.738281 -14.238281 C 3.828125 -14.238281 1.03125 -11.359375 1.03125 -7.316406 C 1.03125 -3.25 3.828125 -0.371094 7.738281 -0.371094 C 9.402344 -0.371094 10.882812 -0.871094 12.019531 -1.742188 L 12.019531 -0.765625 C 12.019531 1.480469 10.882812 2.613281 8.691406 2.613281 C 7.027344 2.613281 5.917969 1.929688 5.625 0.714844 L 1.71875 0.714844 C 2.058594 3.910156 4.753906 5.863281 8.769531 5.863281 Z M 4.992188 -7.316406 C 4.992188 -9.429688 6.472656 -10.910156 8.585938 -10.910156 C 10.699219 -10.910156 12.203125 -9.429688 12.203125 -7.316406 C 12.203125 -5.175781 10.699219 -3.699219 8.585938 -3.699219 C 6.472656 -3.699219 4.992188 -5.175781 4.992188 -7.316406 Z M 4.992188 -7.316406 "/></g></g></g><g fill="#d7604b" fill-opacity="1"><g transform="translate(297.339762, 522.689104)"><g><path d="M 6.628906 0.265625 C 8.691406 0.265625 10.378906 -0.394531 11.570312 -1.609375 L 12.019531 0 L 15.003906 0 L 15.003906 -8.347656 C 15.003906 -12.019531 12.519531 -14.238281 8.375 -14.238281 C 4.832031 -14.238281 2.507812 -12.546875 2.007812 -9.535156 L 5.863281 -9.535156 C 6.101562 -10.511719 7.105469 -11.171875 8.398438 -11.171875 C 9.984375 -11.171875 11.066406 -10.273438 11.066406 -8.902344 L 11.066406 -8.269531 L 6.046875 -8.269531 C 3.167969 -8.269531 1.320312 -6.605469 1.320312 -4.042969 C 1.320312 -1.375 3.355469 0.265625 6.628906 0.265625 Z M 5.28125 -4.199219 C 5.28125 -5.152344 6.074219 -5.757812 7.289062 -5.757812 L 11.09375 -5.757812 C 11.015625 -3.882812 9.5625 -2.613281 7.554688 -2.613281 C 6.179688 -2.613281 5.28125 -3.25 5.28125 -4.199219 Z M 5.28125 -4.199219 "/></g></g></g><g fill="#d7604b" fill-opacity="1"><g transform="translate(314.074678, 522.689104)"><g><path d="M 2.007812 0 L 6.023438 0 L 6.023438 -6.128906 C 6.023438 -9.113281 7.421875 -10.222656 9.71875 -10.222656 L 11.253906 -10.222656 L 11.253906 -13.867188 L 9.746094 -13.867188 C 7.714844 -13.867188 6.417969 -13.3125 5.519531 -12.019531 L 4.992188 -13.867188 L 2.007812 -13.867188 Z M 2.007812 0 "/></g></g></g><g fill="#d7604b" fill-opacity="1"><g transform="translate(326.216751, 522.689104)"><g/></g></g><g fill="#d7604b" fill-opacity="1"><g transform="translate(332.419763, 522.689104)"><g><path d="M 8.082031 0.371094 C 10.089844 0.371094 11.808594 -0.34375 13.046875 -1.585938 L 13.523438 0 L 16.507812 0 L 16.507812 -19.546875 L 12.492188 -19.546875 L 12.492188 -12.785156 C 11.304688 -13.707031 9.800781 -14.238281 8.082031 -14.238281 C 3.960938 -14.238281 1.03125 -11.199219 1.03125 -6.945312 C 1.03125 -2.640625 3.960938 0.371094 8.082031 0.371094 Z M 4.992188 -6.945312 C 4.992188 -9.191406 6.550781 -10.804688 8.824219 -10.804688 C 11.066406 -10.804688 12.625 -9.191406 12.625 -6.945312 C 12.625 -4.675781 11.066406 -3.089844 8.824219 -3.089844 C 6.550781 -3.089844 4.992188 -4.675781 4.992188 -6.945312 Z M 4.992188 -6.945312 "/></g></g></g><g fill="#d7604b" fill-opacity="1"><g transform="translate(350.9232, 522.689104)"><g><path d="M 8.558594 0.371094 C 11.964844 0.371094 14.660156 -1.375 15.875 -4.304688 L 11.808594 -4.304688 C 11.148438 -3.382812 9.957031 -2.851562 8.636719 -2.851562 C 6.816406 -2.851562 5.386719 -3.882812 5.019531 -5.785156 L 16.140625 -5.785156 C 16.375 -10.855469 13.367188 -14.238281 8.609375 -14.238281 C 4.121094 -14.238281 1.03125 -11.253906 1.03125 -6.945312 C 1.03125 -2.613281 4.09375 0.371094 8.558594 0.371094 Z M 5.046875 -8.320312 C 5.492188 -10.011719 6.867188 -11.042969 8.636719 -11.042969 C 10.488281 -11.042969 11.808594 -10.011719 12.257812 -8.320312 Z M 5.046875 -8.320312 "/></g></g></g><g fill="#d7604b" fill-opacity="1"><g transform="translate(368.054071, 522.689104)"><g/></g></g><g fill="#d7604b" fill-opacity="1"><g transform="translate(374.257083, 522.689104)"><g><path d="M 2.21875 0 L 6.390625 0 L 6.390625 -11.148438 L 10.882812 -4.570312 L 13.789062 -4.570312 L 18.277344 -11.121094 L 18.277344 0 L 22.453125 0 L 22.453125 -18.488281 L 18.914062 -18.488281 L 12.363281 -8.902344 L 5.785156 -18.488281 L 2.21875 -18.488281 Z M 2.21875 0 "/></g></g></g><g fill="#d7604b" fill-opacity="1"><g transform="translate(398.910748, 522.689104)"><g><path d="M 6.628906 0.265625 C 8.691406 0.265625 10.378906 -0.394531 11.570312 -1.609375 L 12.019531 0 L 15.003906 0 L 15.003906 -8.347656 C 15.003906 -12.019531 12.519531 -14.238281 8.375 -14.238281 C 4.832031 -14.238281 2.507812 -12.546875 2.007812 -9.535156 L 5.863281 -9.535156 C 6.101562 -10.511719 7.105469 -11.171875 8.398438 -11.171875 C 9.984375 -11.171875 11.066406 -10.273438 11.066406 -8.902344 L 11.066406 -8.269531 L 6.046875 -8.269531 C 3.167969 -8.269531 1.320312 -6.605469 1.320312 -4.042969 C 1.320312 -1.375 3.355469 0.265625 6.628906 0.265625 Z M 5.28125 -4.199219 C 5.28125 -5.152344 6.074219 -5.757812 7.289062 -5.757812 L 11.09375 -5.757812 C 11.015625 -3.882812 9.5625 -2.613281 7.554688 -2.613281 C 6.179688 -2.613281 5.28125 -3.25 5.28125 -4.199219 Z M 5.28125 -4.199219 "/></g></g></g><g fill="#d7604b" fill-opacity="1"><g transform="translate(415.645663, 522.689104)"><g><path d="M 7.34375 0.371094 C 11.09375 0.371094 13.367188 -1.269531 13.367188 -3.910156 C 13.367188 -6.179688 11.675781 -7.632812 8.242188 -8.320312 C 5.863281 -8.796875 5.125 -9.191406 5.125 -10.039062 C 5.125 -10.855469 5.863281 -11.332031 7.050781 -11.332031 C 8.398438 -11.332031 9.21875 -10.722656 9.296875 -9.667969 L 13.128906 -9.667969 C 12.941406 -12.597656 10.777344 -14.238281 7.078125 -14.238281 C 3.355469 -14.238281 1.242188 -12.730469 1.242188 -10.039062 C 1.242188 -7.738281 2.828125 -6.367188 6.367188 -5.730469 C 8.503906 -5.363281 9.402344 -4.808594 9.402344 -3.9375 C 9.402344 -3.117188 8.664062 -2.613281 7.394531 -2.613281 C 5.917969 -2.613281 5.019531 -3.328125 4.992188 -4.464844 L 1.054688 -4.464844 C 1.054688 -1.558594 3.539062 0.371094 7.34375 0.371094 Z M 7.34375 0.371094 "/></g></g></g><g fill="#d7604b" fill-opacity="1"><g transform="translate(430.084158, 522.689104)"><g><path d="M 8.609375 0.371094 C 12.519531 0.371094 15.453125 -1.929688 16.191406 -5.574219 L 12.28125 -5.574219 C 11.726562 -4.066406 10.355469 -3.089844 8.664062 -3.089844 C 6.496094 -3.089844 4.992188 -4.675781 4.992188 -6.945312 C 4.992188 -9.21875 6.496094 -10.804688 8.664062 -10.804688 C 10.25 -10.804688 11.542969 -9.957031 12.203125 -8.558594 L 16.058594 -8.558594 C 15.425781 -11.992188 12.46875 -14.238281 8.609375 -14.238281 C 4.171875 -14.238281 1.03125 -11.199219 1.03125 -6.945312 C 1.03125 -2.667969 4.148438 0.371094 8.609375 0.371094 Z M 8.609375 0.371094 "/></g></g></g><g fill="#d7604b" fill-opacity="1"><g transform="translate(447.241405, 522.689104)"><g><path d="M 8.824219 0.371094 C 13.417969 0.371094 16.589844 -2.613281 16.589844 -6.945312 C 16.589844 -11.253906 13.417969 -14.238281 8.824219 -14.238281 C 4.199219 -14.238281 1.03125 -11.253906 1.03125 -6.945312 C 1.03125 -2.613281 4.199219 0.371094 8.824219 0.371094 Z M 4.992188 -6.945312 C 4.992188 -9.21875 6.578125 -10.804688 8.824219 -10.804688 C 11.066406 -10.804688 12.625 -9.21875 12.625 -6.945312 C 12.625 -4.675781 11.066406 -3.089844 8.824219 -3.089844 C 6.578125 -3.089844 4.992188 -4.675781 4.992188 -6.945312 Z M 4.992188 -6.945312 "/></g></g></g><g fill="#d7604b" fill-opacity="1"><g transform="translate(464.847393, 522.689104)"><g><path d="M 8.691406 0 L 11.226562 0 L 11.226562 -3.488281 L 9.5625 -3.488281 C 7.976562 -3.488281 7.238281 -4.253906 7.238281 -5.863281 L 7.238281 -10.59375 L 11.042969 -10.59375 L 11.042969 -13.867188 L 7.238281 -13.867188 L 7.238281 -17.460938 L 4.121094 -17.460938 L 3.882812 -15.664062 C 3.671875 -14.238281 3.273438 -13.867188 1.769531 -13.867188 L 0.527344 -13.867188 L 0.527344 -10.59375 L 3.222656 -10.59375 L 3.222656 -5.257812 C 3.222656 -1.875 5.175781 0 8.691406 0 Z M 8.691406 0 "/></g></g></g><g fill="#d7604b" fill-opacity="1"><g transform="translate(477.174225, 522.689104)"><g><path d="M 6.628906 0.265625 C 8.691406 0.265625 10.378906 -0.394531 11.570312 -1.609375 L 12.019531 0 L 15.003906 0 L 15.003906 -8.347656 C 15.003906 -12.019531 12.519531 -14.238281 8.375 -14.238281 C 4.832031 -14.238281 2.507812 -12.546875 2.007812 -9.535156 L 5.863281 -9.535156 C 6.101562 -10.511719 7.105469 -11.171875 8.398438 -11.171875 C 9.984375 -11.171875 11.066406 -10.273438 11.066406 -8.902344 L 11.066406 -8.269531 L 6.046875 -8.269531 C 3.167969 -8.269531 1.320312 -6.605469 1.320312 -4.042969 C 1.320312 -1.375 3.355469 0.265625 6.628906 0.265625 Z M 5.28125 -4.199219 C 5.28125 -5.152344 6.074219 -5.757812 7.289062 -5.757812 L 11.09375 -5.757812 C 11.015625 -3.882812 9.5625 -2.613281 7.554688 -2.613281 C 6.179688 -2.613281 5.28125 -3.25 5.28125 -4.199219 Z M 5.28125 -4.199219 "/></g></g></g><g fill="#d7604b" fill-opacity="1"><g transform="translate(493.909141, 522.689104)"><g><path d="M 7.34375 0.371094 C 11.09375 0.371094 13.367188 -1.269531 13.367188 -3.910156 C 13.367188 -6.179688 11.675781 -7.632812 8.242188 -8.320312 C 5.863281 -8.796875 5.125 -9.191406 5.125 -10.039062 C 5.125 -10.855469 5.863281 -11.332031 7.050781 -11.332031 C 8.398438 -11.332031 9.21875 -10.722656 9.296875 -9.667969 L 13.128906 -9.667969 C 12.941406 -12.597656 10.777344 -14.238281 7.078125 -14.238281 C 3.355469 -14.238281 1.242188 -12.730469 1.242188 -10.039062 C 1.242188 -7.738281 2.828125 -6.367188 6.367188 -5.730469 C 8.503906 -5.363281 9.402344 -4.808594 9.402344 -3.9375 C 9.402344 -3.117188 8.664062 -2.613281 7.394531 -2.613281 C 5.917969 -2.613281 5.019531 -3.328125 4.992188 -4.464844 L 1.054688 -4.464844 C 1.054688 -1.558594 3.539062 0.371094 7.34375 0.371094 Z M 7.34375 0.371094 "/></g></g></g><g fill="#466aa2" fill-opacity="1"><g transform="translate(126.73012, 415.363204)"><g><path d="M 2.695312 0 L 14.210938 0 L 14.210938 -2.164062 L 5.019531 -2.164062 L 5.019531 -8.347656 L 13.261719 -8.347656 L 13.261719 -10.488281 L 5.019531 -10.488281 L 5.019531 -16.324219 L 13.921875 -16.324219 L 13.921875 -18.488281 L 2.695312 -18.488281 Z M 2.695312 0 "/></g></g></g><g fill="#466aa2" fill-opacity="1"><g transform="translate(142.646778, 415.363204)"><g><path d="M 8.847656 0.34375 C 12.890625 0.34375 15.503906 -1.636719 15.503906 -4.859375 C 15.503906 -7.582031 13.683594 -9.21875 8.953125 -10.378906 C 5.363281 -11.253906 4.171875 -12.203125 4.171875 -13.734375 C 4.171875 -15.503906 5.757812 -16.613281 8.398438 -16.613281 C 11.121094 -16.613281 12.8125 -15.242188 12.863281 -13.023438 L 15.160156 -13.023438 C 15.136719 -16.613281 12.546875 -18.832031 8.398438 -18.832031 C 4.359375 -18.832031 1.796875 -16.851562 1.796875 -13.734375 C 1.796875 -10.882812 3.828125 -9.296875 8.375 -8.214844 C 11.703125 -7.421875 13.101562 -6.496094 13.101562 -4.78125 C 13.101562 -2.957031 11.464844 -1.875 8.847656 -1.875 C 5.96875 -1.875 3.960938 -3.300781 3.910156 -5.679688 L 1.585938 -5.679688 C 1.609375 -2.058594 4.4375 0.34375 8.847656 0.34375 Z M 8.847656 0.34375 "/></g></g></g><g fill="#466aa2" fill-opacity="1"><g transform="translate(159.724834, 415.363204)"><g><path d="M 7.160156 0 L 9.484375 0 L 9.484375 -16.269531 L 15.714844 -16.269531 L 15.714844 -18.488281 L 0.898438 -18.488281 L 0.898438 -16.269531 L 7.160156 -16.269531 Z M 7.160156 0 "/></g></g></g><g fill="#466aa2" fill-opacity="1"><g transform="translate(176.354182, 415.363204)"><g><path d="M 3.382812 0.210938 C 4.464844 0.210938 5.175781 -0.527344 5.175781 -1.53125 C 5.175781 -2.535156 4.464844 -3.25 3.382812 -3.25 C 2.324219 -3.25 1.609375 -2.535156 1.609375 -1.53125 C 1.609375 -0.527344 2.324219 0.210938 3.382812 0.210938 Z M 3.382812 0.210938 "/></g></g></g><g fill="#466aa2" fill-opacity="1"><g transform="translate(183.136239, 415.363204)"><g/></g></g><g fill="#466aa2" fill-opacity="1"><g transform="translate(547.330344, 415.363204)"><g><path d="M 1.902344 0 L 14.765625 0 L 14.765625 -2.164062 L 5.707031 -2.164062 L 11.042969 -7.027344 C 13.339844 -9.140625 14.394531 -11.199219 14.394531 -13.285156 C 14.394531 -16.535156 11.808594 -18.832031 8.269531 -18.832031 C 4.648438 -18.832031 2.21875 -16.429688 2.113281 -12.730469 L 4.277344 -12.730469 C 4.359375 -15.292969 5.941406 -16.800781 8.292969 -16.800781 C 10.566406 -16.800781 12.152344 -15.398438 12.152344 -13.285156 C 12.152344 -11.753906 11.332031 -10.40625 9.5625 -8.769531 L 1.902344 -1.742188 Z M 1.902344 0 "/></g></g></g><g fill="#466aa2" fill-opacity="1"><g transform="translate(564.250049, 415.363204)"><g><path d="M 9.246094 0.34375 C 13.867188 0.34375 16.695312 -3.328125 16.695312 -9.246094 C 16.695312 -15.160156 13.867188 -18.832031 9.246094 -18.832031 C 4.648438 -18.832031 1.769531 -15.160156 1.769531 -9.246094 C 1.769531 -3.328125 4.648438 0.34375 9.246094 0.34375 Z M 4.066406 -9.246094 C 4.066406 -13.789062 6.046875 -16.589844 9.246094 -16.589844 C 12.441406 -16.589844 14.394531 -13.789062 14.394531 -9.246094 C 14.394531 -4.703125 12.441406 -1.902344 9.246094 -1.902344 C 6.046875 -1.902344 4.066406 -4.703125 4.066406 -9.246094 Z M 4.066406 -9.246094 "/></g></g></g><g fill="#466aa2" fill-opacity="1"><g transform="translate(582.700702, 415.363204)"><g><path d="M 1.902344 0 L 14.765625 0 L 14.765625 -2.164062 L 5.707031 -2.164062 L 11.042969 -7.027344 C 13.339844 -9.140625 14.394531 -11.199219 14.394531 -13.285156 C 14.394531 -16.535156 11.808594 -18.832031 8.269531 -18.832031 C 4.648438 -18.832031 2.21875 -16.429688 2.113281 -12.730469 L 4.277344 -12.730469 C 4.359375 -15.292969 5.941406 -16.800781 8.292969 -16.800781 C 10.566406 -16.800781 12.152344 -15.398438 12.152344 -13.285156 C 12.152344 -11.753906 11.332031 -10.40625 9.5625 -8.769531 L 1.902344 -1.742188 Z M 1.902344 0 "/></g></g></g><g fill="#466aa2" fill-opacity="1"><g transform="translate(599.620408, 415.363204)"><g><path d="M 7.871094 0.34375 C 11.648438 0.34375 14.183594 -2.007812 14.183594 -5.519531 C 14.183594 -8.875 11.859375 -11.171875 8.320312 -11.359375 L 13.550781 -16.800781 L 13.550781 -18.488281 L 1.902344 -18.488281 L 1.902344 -16.324219 L 10.089844 -16.324219 L 4.886719 -10.910156 L 4.886719 -9.246094 L 7.898438 -9.246094 C 10.273438 -9.246094 11.859375 -7.820312 11.859375 -5.601562 C 11.859375 -3.382812 10.300781 -1.902344 7.871094 -1.902344 C 5.574219 -1.902344 3.988281 -3.25 3.855469 -5.335938 L 1.585938 -5.335938 C 1.71875 -1.902344 4.199219 0.34375 7.871094 0.34375 Z M 7.871094 0.34375 "/></g></g></g></svg>